<svg width="29" height="29" viewBox="0 0 29 29" fill="none" xmlns="http://www.w3.org/2000/svg">
<rect x="0.03125" y="0.3125" width="28" height="28" rx="6" fill="#D4E2FD"/>
<path d="M18.698 11.1041H16.948V9.93742C16.948 9.28992 16.4288 8.77075 15.7813 8.77075H12.2813C11.6338 8.77075 11.1147 9.28992 11.1147 9.93742V11.1041H9.36466C8.71716 11.1041 8.198 11.6233 8.198 12.2708V18.6874C8.198 19.3349 8.71716 19.8541 9.36466 19.8541H18.698C19.3455 19.8541 19.8647 19.3349 19.8647 18.6874V12.2708C19.8647 11.6233 19.3455 11.1041 18.698 11.1041ZM12.2813 9.93742H15.7813V11.1041H12.2813V9.93742ZM18.698 18.6874H9.36466V17.5208H18.698V18.6874ZM18.698 15.7708H9.36466V12.2708H11.1147V13.4374H12.2813V12.2708H15.7813V13.4374H16.948V12.2708H18.698V15.7708Z" fill="#274AFF"/>
</svg>
